<svg width="126" height="40" viewBox="0 0 126 40" fill="none" xmlns="http://www.w3.org/2000/svg">
<rect width="126" height="40" rx="4" fill="#38393A"/>
<path d="M43.3257 12.5344H41.2407L40.7725 13.8333H40.0957L41.9961 8.85669H42.5703L44.4741 13.8333H43.8008L43.3257 12.5344ZM41.439 11.9944H43.1309L42.2832 9.66675L41.439 11.9944Z" fill="white"/>
<path d="M48.9688 13.8333H48.3091L45.8037 9.99829V13.8333H45.144V8.85669H45.8037L48.3159 12.7087V8.85669H48.9688V13.8333Z" fill="white"/>
<path d="M50.1343 13.8333V8.85669H51.5391C51.972 8.85669 52.3548 8.95239 52.6875 9.1438C53.0202 9.33521 53.2765 9.6075 53.4565 9.96069C53.6388 10.3139 53.7311 10.7195 53.7334 11.1775V11.4954C53.7334 11.9648 53.6423 12.3761 53.46 12.7292C53.2799 13.0824 53.0213 13.3536 52.6841 13.5427C52.3491 13.7319 51.9583 13.8287 51.5117 13.8333H50.1343ZM50.7905 9.39673V13.2966H51.481C51.9868 13.2966 52.3799 13.1394 52.6602 12.825C52.9427 12.5105 53.084 12.0627 53.084 11.4817V11.1912C53.084 10.6261 52.9507 10.1874 52.6841 9.87524C52.4198 9.56079 52.0438 9.40129 51.5562 9.39673H50.7905Z" fill="white"/>
<path d="M56.5532 11.8201H55.3843V13.8333H54.7246V8.85669H56.3721C56.9326 8.85669 57.3633 8.98429 57.6641 9.2395C57.9671 9.49471 58.1187 9.86613 58.1187 10.3538C58.1187 10.6637 58.0343 10.9337 57.8657 11.1638C57.6994 11.394 57.467 11.566 57.1685 11.6799L58.3374 13.7922V13.8333H57.6333L56.5532 11.8201ZM55.3843 11.2834H56.3926C56.7184 11.2834 56.9771 11.1991 57.1685 11.0305C57.3621 10.8619 57.459 10.6363 57.459 10.3538C57.459 10.0461 57.3667 9.8103 57.1821 9.64624C56.9998 9.48218 56.7355 9.39901 56.3892 9.39673H55.3843V11.2834Z" fill="white"/>
<path d="M62.8696 11.5056C62.8696 11.9932 62.7876 12.4194 62.6235 12.7839C62.4595 13.1462 62.2271 13.4231 61.9263 13.6145C61.6255 13.8059 61.2746 13.9016 60.8735 13.9016C60.4816 13.9016 60.1341 13.8059 59.8311 13.6145C59.528 13.4208 59.2922 13.1462 59.1235 12.7908C58.9572 12.433 58.8717 12.0194 58.8672 11.55V11.1912C58.8672 10.7126 58.9504 10.29 59.1167 9.9231C59.283 9.55623 59.5177 9.27596 59.8208 9.08228C60.1261 8.88631 60.4748 8.78833 60.8667 8.78833C61.2655 8.78833 61.6164 8.88517 61.9194 9.07886C62.2248 9.27026 62.4595 9.5494 62.6235 9.91626C62.7876 10.2808 62.8696 10.7058 62.8696 11.1912V11.5056ZM62.2168 11.1843C62.2168 10.5942 62.0983 10.1418 61.8613 9.82739C61.6243 9.51066 61.2928 9.35229 60.8667 9.35229C60.452 9.35229 60.125 9.51066 59.8857 9.82739C59.6488 10.1418 59.5269 10.5793 59.52 11.1399V11.5056C59.52 12.0776 59.6396 12.5276 59.8789 12.8557C60.1204 13.1816 60.452 13.3445 60.8735 13.3445C61.2974 13.3445 61.6255 13.1907 61.8579 12.8831C62.0903 12.5732 62.21 12.13 62.2168 11.5535V11.1843Z" fill="white"/>
<path d="M64.5581 13.8333H63.9019V8.85669H64.5581V13.8333Z" fill="white"/>
<path d="M65.7612 13.8333V8.85669H67.166C67.599 8.85669 67.9818 8.95239 68.3145 9.1438C68.6471 9.33521 68.9035 9.6075 69.0835 9.96069C69.2658 10.3139 69.3581 10.7195 69.3603 11.1775V11.4954C69.3603 11.9648 69.2692 12.3761 69.0869 12.7292C68.9069 13.0824 68.6483 13.3536 68.311 13.5427C67.9761 13.7319 67.5853 13.8287 67.1387 13.8333H65.7612ZM66.4175 9.39673V13.2966H67.1079C67.6138 13.2966 68.0068 13.1394 68.2871 12.825C68.5697 12.5105 68.7109 12.0627 68.7109 11.4817V11.1912C68.7109 10.6261 68.5776 10.1874 68.311 9.87524C68.0467 9.56079 67.6707 9.40129 67.1831 9.39673H66.4175Z" fill="white"/>
<path d="M74.8394 12.5344H72.7544L72.2861 13.8333H71.6094L73.5098 8.85669H74.084L75.9878 13.8333H75.3145L74.8394 12.5344ZM72.9526 11.9944H74.6445L73.7969 9.66675L72.9526 11.9944Z" fill="white"/>
<path d="M77.314 11.885V13.8333H76.6577V8.85669H78.4932C79.0378 8.85669 79.4639 8.99569 79.7715 9.27368C80.0814 9.55168 80.2363 9.91968 80.2363 10.3777C80.2363 10.8608 80.0848 11.2333 79.7817 11.4954C79.481 11.7551 79.0492 11.885 78.4863 11.885H77.314ZM77.314 11.3484H78.4932C78.8441 11.3484 79.113 11.2664 79.2998 11.1023C79.4867 10.936 79.5801 10.6967 79.5801 10.3845C79.5801 10.0883 79.4867 9.85132 79.2998 9.67358C79.113 9.49585 78.8566 9.40356 78.5308 9.39673H77.314V11.3484Z" fill="white"/>
<path d="M81.73 11.885V13.8333H81.0737V8.85669H82.9092C83.4538 8.85669 83.8799 8.99569 84.1875 9.27368C84.4974 9.55168 84.6523 9.91968 84.6523 10.3777C84.6523 10.8608 84.5008 11.2333 84.1978 11.4954C83.897 11.7551 83.4652 11.885 82.9023 11.885H81.73ZM81.73 11.3484H82.9092C83.2601 11.3484 83.529 11.2664 83.7158 11.1023C83.9027 10.936 83.9961 10.6967 83.9961 10.3845C83.9961 10.0883 83.9027 9.85132 83.7158 9.67358C83.529 9.49585 83.2726 9.40356 82.9468 9.39673H81.73V11.3484Z" fill="white"/>
<path d="M91.0542 11.5056C91.0542 11.9932 90.9722 12.4194 90.8081 12.7839C90.644 13.1462 90.4116 13.4231 90.1108 13.6145C89.8101 13.8059 89.4591 13.9016 89.0581 13.9016C88.6662 13.9016 88.3187 13.8059 88.0156 13.6145C87.7126 13.4208 87.4767 13.1462 87.3081 12.7908C87.1418 12.433 87.0563 12.0194 87.0518 11.55V11.1912C87.0518 10.7126 87.1349 10.29 87.3013 9.9231C87.4676 9.55623 87.7023 9.27596 88.0054 9.08228C88.3107 8.88631 88.6593 8.78833 89.0513 8.78833C89.45 8.78833 89.8009 8.88517 90.104 9.07886C90.4093 9.27026 90.644 9.5494 90.8081 9.91626C90.9722 10.2808 91.0542 10.7058 91.0542 11.1912V11.5056ZM90.4014 11.1843C90.4014 10.5942 90.2829 10.1418 90.0459 9.82739C89.8089 9.51066 89.4774 9.35229 89.0513 9.35229C88.6366 9.35229 88.3096 9.51066 88.0703 9.82739C87.8333 10.1418 87.7114 10.5793 87.7046 11.1399V11.5056C87.7046 12.0776 87.8242 12.5276 88.0635 12.8557C88.305 13.1816 88.6366 13.3445 89.0581 13.3445C89.4819 13.3445 89.8101 13.1907 90.0425 12.8831C90.2749 12.5732 90.3945 12.13 90.4014 11.5535V11.1843Z" fill="white"/>
<path d="M95.8633 13.8333H95.2036L92.6982 9.99829V13.8333H92.0386V8.85669H92.6982L95.2104 12.7087V8.85669H95.8633V13.8333Z" fill="white"/>
<path d="M48.5039 27.6943C48.1667 28.1773 47.695 28.5396 47.0889 28.7812C46.4873 29.0181 45.7855 29.1366 44.9834 29.1366C44.1722 29.1366 43.4521 28.9475 42.8232 28.5693C42.1943 28.1864 41.7067 27.6441 41.3604 26.9423C41.0186 26.2405 40.8431 25.427 40.834 24.5019V23.6337C40.834 22.1344 41.1826 20.9722 41.8799 20.1474C42.5817 19.3225 43.5661 18.9101 44.833 18.9101C45.8721 18.9101 46.7083 19.1767 47.3418 19.7099C47.9753 20.2385 48.3626 20.9905 48.5039 21.9657H47.1914C46.9453 20.6487 46.1615 19.9902 44.8398 19.9902C43.9603 19.9902 43.2926 20.3 42.8369 20.9198C42.3857 21.5351 42.1579 22.4283 42.1533 23.5995V24.413C42.1533 25.5295 42.4085 26.4182 42.9189 27.079C43.4294 27.7353 44.1198 28.0634 44.9902 28.0634C45.4824 28.0634 45.9131 28.0087 46.2822 27.8993C46.6514 27.79 46.9567 27.6054 47.1982 27.3456V25.1103H44.8945V24.0439H48.5039V27.6943Z" fill="white"/>
<path d="M50.165 25.2333C50.165 24.5087 50.3063 23.857 50.5889 23.2782C50.876 22.6995 51.2725 22.2528 51.7783 21.9384C52.2887 21.6239 52.8698 21.4667 53.5215 21.4667C54.5286 21.4667 55.3421 21.8153 55.9619 22.5126C56.5863 23.2099 56.8984 24.1373 56.8984 25.2948V25.3837C56.8984 26.1038 56.7594 26.7509 56.4814 27.3251C56.208 27.8948 55.8138 28.3391 55.2988 28.6581C54.7884 28.9771 54.2005 29.1366 53.5352 29.1366C52.5326 29.1366 51.7191 28.788 51.0947 28.0907C50.4749 27.3935 50.165 26.4706 50.165 25.3222V25.2333ZM51.4365 25.3837C51.4365 26.204 51.6257 26.8625 52.0039 27.3593C52.3867 27.856 52.8971 28.1044 53.5352 28.1044C54.1777 28.1044 54.6882 27.8538 55.0664 27.3525C55.4447 26.8466 55.6338 26.1402 55.6338 25.2333C55.6338 24.4221 55.4401 23.7659 55.0527 23.2646C54.6699 22.7587 54.1595 22.5058 53.5215 22.5058C52.8971 22.5058 52.3936 22.7542 52.0107 23.2509C51.6279 23.7476 51.4365 24.4586 51.4365 25.3837Z" fill="white"/>
<path d="M58.1494 25.2333C58.1494 24.5087 58.2907 23.857 58.5732 23.2782C58.8604 22.6995 59.2568 22.2528 59.7627 21.9384C60.2731 21.6239 60.8542 21.4667 61.5059 21.4667C62.513 21.4667 63.3265 21.8153 63.9463 22.5126C64.5706 23.2099 64.8828 24.1373 64.8828 25.2948V25.3837C64.8828 26.1038 64.7438 26.7509 64.4658 27.3251C64.1924 27.8948 63.7982 28.3391 63.2832 28.6581C62.7728 28.9771 62.1849 29.1366 61.5195 29.1366C60.5169 29.1366 59.7034 28.788 59.0791 28.0907C58.4593 27.3935 58.1494 26.4706 58.1494 25.3222V25.2333ZM59.4209 25.3837C59.4209 26.204 59.61 26.8625 59.9883 27.3593C60.3711 27.856 60.8815 28.1044 61.5195 28.1044C62.1621 28.1044 62.6725 27.8538 63.0508 27.3525C63.429 26.8466 63.6182 26.1402 63.6182 25.2333C63.6182 24.4221 63.4245 23.7659 63.0371 23.2646C62.6543 22.7587 62.1439 22.5058 61.5059 22.5058C60.8815 22.5058 60.3779 22.7542 59.9951 23.2509C59.6123 23.7476 59.4209 24.4586 59.4209 25.3837Z" fill="white"/>
<path d="M66.168 25.2402C66.168 24.0872 66.4346 23.1711 66.9678 22.4921C67.501 21.8085 68.2074 21.4667 69.0869 21.4667C69.9893 21.4667 70.6934 21.7857 71.1992 22.4237L71.2607 21.6034H72.416V28.8222C72.416 29.7792 72.1312 30.5334 71.5615 31.0849C70.9964 31.6363 70.2353 31.912 69.2783 31.912C68.7451 31.912 68.2233 31.7981 67.7129 31.5702C67.2025 31.3424 66.8128 31.0302 66.5439 30.6337L67.2002 29.8749C67.7425 30.5448 68.4056 30.8798 69.1895 30.8798C69.8047 30.8798 70.2832 30.7066 70.625 30.3603C70.9714 30.0139 71.1445 29.5263 71.1445 28.8974V28.2616C70.6387 28.845 69.9482 29.1366 69.0732 29.1366C68.2074 29.1366 67.5055 28.788 66.9678 28.0907C66.4346 27.3935 66.168 26.4433 66.168 25.2402ZM67.4395 25.3837C67.4395 26.2177 67.6104 26.8739 67.9521 27.3525C68.2939 27.8264 68.7725 28.0634 69.3877 28.0634C70.1852 28.0634 70.7708 27.7011 71.1445 26.9765V23.5995C70.7572 22.8931 70.1761 22.54 69.4014 22.54C68.7861 22.54 68.3053 22.7792 67.959 23.2577C67.6126 23.7362 67.4395 24.4449 67.4395 25.3837Z" fill="white"/>
<path d="M75.7041 28.9999H74.4395V18.4999H75.7041V28.9999Z" fill="white"/>
<path d="M80.8037 29.1366C79.8011 29.1366 78.9854 28.8085 78.3564 28.1523C77.7275 27.4915 77.4131 26.6096 77.4131 25.5068V25.2743C77.4131 24.5406 77.5521 23.8866 77.8301 23.3124C78.1126 22.7336 78.5046 22.2825 79.0059 21.9589C79.5117 21.6308 80.0586 21.4667 80.6465 21.4667C81.6081 21.4667 82.3555 21.7834 82.8887 22.4169C83.4219 23.0504 83.6885 23.9573 83.6885 25.1376V25.664H78.6777C78.696 26.3931 78.9079 26.9833 79.3135 27.4345C79.7236 27.8811 80.2432 28.1044 80.8721 28.1044C81.3187 28.1044 81.6969 28.0133 82.0068 27.831C82.3167 27.6487 82.5879 27.4071 82.8203 27.1064L83.5928 27.7079C82.973 28.6604 82.0433 29.1366 80.8037 29.1366ZM80.6465 22.5058C80.1361 22.5058 79.7077 22.6926 79.3613 23.0663C79.015 23.4355 78.8008 23.955 78.7188 24.6249H82.4238V24.5292C82.3874 23.8866 82.2142 23.3899 81.9043 23.039C81.5944 22.6835 81.1751 22.5058 80.6465 22.5058Z" fill="white"/>
<path d="M90.1416 25.1034V28.9999H88.8291V19.0468H92.5C93.5892 19.0468 94.4414 19.3248 95.0566 19.8808C95.6764 20.4368 95.9863 21.1728 95.9863 22.0888C95.9863 23.0549 95.6833 23.8 95.0771 24.3241C94.4756 24.8437 93.612 25.1034 92.4863 25.1034H90.1416ZM90.1416 24.0302H92.5C93.2018 24.0302 93.7396 23.8661 94.1133 23.538C94.487 23.2053 94.6738 22.7268 94.6738 22.1025C94.6738 21.51 94.487 21.0361 94.1133 20.6806C93.7396 20.3251 93.2269 20.1405 92.5752 20.1269H90.1416V24.0302Z" fill="white"/>
<path d="M98.8369 28.9999H97.5723V18.4999H98.8369V28.9999Z" fill="white"/>
<path d="M105.434 28.9999C105.361 28.8541 105.301 28.5943 105.256 28.2206C104.668 28.8313 103.966 29.1366 103.15 29.1366C102.421 29.1366 101.822 28.9316 101.353 28.5214C100.888 28.1067 100.655 27.5826 100.655 26.9491C100.655 26.179 100.947 25.5819 101.53 25.1581C102.118 24.7297 102.943 24.5155 104.005 24.5155H105.235V23.9345C105.235 23.4924 105.103 23.1415 104.839 22.8818C104.575 22.6174 104.185 22.4853 103.67 22.4853C103.219 22.4853 102.84 22.5992 102.535 22.8271C102.23 23.0549 102.077 23.3306 102.077 23.6542H100.806C100.806 23.2851 100.936 22.9296 101.195 22.5878C101.46 22.2415 101.815 21.968 102.262 21.7675C102.713 21.567 103.207 21.4667 103.745 21.4667C104.597 21.4667 105.265 21.6809 105.748 22.1093C106.231 22.5331 106.482 23.1187 106.5 23.8661V27.2704C106.5 27.9495 106.587 28.4895 106.76 28.8905V28.9999H105.434ZM103.335 28.0361C103.731 28.0361 104.107 27.9335 104.463 27.7284C104.818 27.5234 105.076 27.2568 105.235 26.9286V25.4111H104.244C102.695 25.4111 101.92 25.8645 101.92 26.7714C101.92 27.1679 102.052 27.4778 102.316 27.7011C102.581 27.9244 102.92 28.0361 103.335 28.0361Z" fill="white"/>
<path d="M110.793 27.1474L112.516 21.6034H113.869L110.896 30.1415C110.435 31.372 109.704 31.9872 108.701 31.9872L108.462 31.9667L107.99 31.8778V30.8525L108.332 30.8798C108.76 30.8798 109.093 30.7932 109.33 30.62C109.572 30.4469 109.77 30.1301 109.925 29.6698L110.205 28.9179L107.566 21.6034H108.947L110.793 27.1474Z" fill="white"/>
<path d="M28.1085 23.2608C30.8778 21.7403 32.9771 20.5816 33.1581 20.4915C33.7369 20.1837 34.3347 19.369 33.1581 18.7361C32.7782 18.5371 30.7328 17.4145 28.1085 15.9668L24.4705 19.6409L28.1085 23.2607V23.2608Z" fill="#FFD900"/>
<path d="M24.4705 19.6404L12.8867 31.3151C13.1586 31.3511 13.4656 31.279 13.8275 31.08C14.5873 30.6641 22.642 26.2654 28.1085 23.2612L24.4705 19.6404Z" fill="#F43249"/>
<path d="M24.4705 19.6406L28.1085 15.9846C28.1085 15.9846 14.6423 8.63558 13.8275 8.20176C13.5206 8.01995 13.1766 7.96595 12.8688 8.01995L24.4705 19.6406Z" fill="#00EE76"/>
<path d="M24.4705 19.6412L12.8688 8.02051C12.3979 8.12937 12 8.54536 12 9.39612V29.9402C12 30.7189 12.3079 31.2798 12.8868 31.3338L24.4705 19.6412Z" fill="#00D3FF"/>
</svg>
