<svg width="112" height="40" viewBox="0 0 112 40" fill="none" xmlns="http://www.w3.org/2000/svg">
<rect width="112" height="40" rx="4" fill="#38393A"/>
<path d="M16.8818 29.8866C16.4038 29.5806 15.9801 29.2026 15.6271 28.7671C15.2387 28.3175 14.8789 27.8458 14.5496 27.3546C13.7768 26.2656 13.1708 25.0754 12.7501 23.8206C12.2447 22.3629 12 20.9657 12 19.5992C12 18.073 12.3432 16.7407 13.0145 15.6213C13.5122 14.7463 14.2438 14.0151 15.1338 13.5033C15.9963 12.988 16.9873 12.706 18.0024 12.687C18.3578 12.687 18.7404 12.7366 19.1465 12.8313C19.4382 12.9108 19.7936 13.0361 20.2277 13.1921C20.7801 13.3969 21.0839 13.5223 21.187 13.5529C21.5105 13.6666 21.7825 13.7161 21.9962 13.7161C22.1583 13.7161 22.3871 13.6666 22.647 13.5908C22.7933 13.5412 23.0691 13.4537 23.4638 13.2912C23.8548 13.1542 24.1624 13.0369 24.4071 12.9494C24.7822 12.843 25.1451 12.7446 25.4687 12.695C25.8522 12.6369 26.2415 12.6215 26.6287 12.6491C27.2997 12.6913 27.9606 12.8281 28.5903 13.0551C29.62 13.4537 30.4527 14.0762 31.0725 14.961C30.8106 15.1163 30.5647 15.2954 30.3383 15.4959C29.8455 15.9161 29.4258 16.4095 29.095 16.9572C28.6625 17.7058 28.4384 18.549 28.4441 19.4053C28.46 20.457 28.7404 21.3834 29.2927 22.1843C29.6988 22.778 30.2266 23.2856 30.8437 23.6762C31.1597 23.881 31.4317 24.0217 31.6923 24.1165C31.5703 24.4809 31.44 24.8336 31.2862 25.1835C30.9373 25.968 30.5146 26.7201 30.0231 27.4304C29.5852 28.0419 29.2419 28.4974 28.9813 28.8006C28.5752 29.2634 28.1842 29.6169 27.7895 29.8632C27.3553 30.1402 26.8423 30.2881 26.3211 30.2881C25.968 30.3012 25.6151 30.2601 25.2754 30.1664C24.9837 30.0717 24.6951 29.9689 24.4109 29.8516C24.1155 29.7211 23.8109 29.6107 23.4994 29.5214C22.7294 29.3312 21.922 29.3299 21.1514 29.5178C20.8354 29.6052 20.5316 29.7073 20.2315 29.8326C19.8095 30.0032 19.5291 30.1176 19.367 30.1664C19.0435 30.2575 18.7078 30.3144 18.3684 30.3333C17.8433 30.3333 17.3538 30.189 16.8689 29.8968L16.8818 29.8866ZM23.807 11.9465C23.1206 12.2767 22.4652 12.4174 21.8143 12.3714C21.712 11.741 21.8143 11.096 22.0863 10.3898C22.3179 9.79145 22.6601 9.23836 23.0963 8.7572C23.557 8.25068 24.116 7.83551 24.742 7.53496C25.4088 7.2048 26.0445 7.02624 26.6522 7C26.731 7.66032 26.6522 8.3097 26.3999 9.01156C26.1664 9.63199 25.8248 10.2097 25.3899 10.7199C24.9459 11.2271 24.4011 11.6439 23.7874 11.9458L23.807 11.9465Z" fill="white"/>
<path d="M44.252 13.3472C44.0834 13.5887 43.8475 13.7699 43.5445 13.8906C43.2437 14.0091 42.8928 14.0684 42.4917 14.0684C42.0861 14.0684 41.7261 13.9738 41.4117 13.7847C41.0972 13.5933 40.8534 13.3221 40.6802 12.9712C40.5093 12.6203 40.4216 12.2135 40.417 11.751V11.3169C40.417 10.5672 40.5913 9.98617 40.94 9.57373C41.2909 9.1613 41.7831 8.95508 42.4165 8.95508C42.9361 8.95508 43.3542 9.08838 43.6709 9.35498C43.9877 9.6193 44.1813 9.99528 44.252 10.4829H43.5957C43.4727 9.82438 43.0808 9.49512 42.42 9.49512C41.9802 9.49512 41.6464 9.65007 41.4185 9.95996C41.1929 10.2676 41.079 10.7142 41.0767 11.2998V11.7065C41.0767 12.2648 41.2043 12.7091 41.4595 13.0396C41.7147 13.3677 42.0599 13.5317 42.4951 13.5317C42.7412 13.5317 42.9566 13.5044 43.1411 13.4497C43.3257 13.395 43.4784 13.3027 43.5992 13.1729V12.0552H42.4473V11.522H44.252V13.3472Z" fill="white"/>
<path d="M48.1621 11.6997H46.0054V13.4634H48.5108V14H45.3492V9.02344H48.4766V9.56348H46.0054V11.1631H48.1621V11.6997Z" fill="white"/>
<path d="M52.8345 9.56348H51.2349V14H50.5821V9.56348H48.9859V9.02344H52.8345V9.56348Z" fill="white"/>
<path d="M55.8765 14H55.2202V9.02344H55.8765V14Z" fill="white"/>
<path d="M60.4156 9.56348H58.8159V14H58.1631V9.56348H56.5669V9.02344H60.4156V9.56348Z" fill="white"/>
<path d="M66.5816 11.6724C66.5816 12.16 66.4995 12.5861 66.3355 12.9507C66.1714 13.313 65.939 13.5898 65.6382 13.7812C65.3374 13.9727 64.9865 14.0684 64.5855 14.0684C64.1936 14.0684 63.8461 13.9727 63.543 13.7812C63.2399 13.5876 63.0041 13.313 62.8355 12.9575C62.6691 12.5998 62.5837 12.1862 62.5791 11.7168V11.3579C62.5791 10.8794 62.6623 10.4567 62.8286 10.0898C62.995 9.72298 63.2297 9.44271 63.5327 9.24902C63.8381 9.05306 64.1867 8.95508 64.5786 8.95508C64.9774 8.95508 65.3283 9.05192 65.6314 9.24561C65.9367 9.43701 66.1714 9.71615 66.3355 10.083C66.4995 10.4476 66.5816 10.8726 66.5816 11.3579V11.6724ZM65.9287 11.3511C65.9287 10.7609 65.8103 10.3086 65.5733 9.99414C65.3363 9.67741 65.0047 9.51904 64.5786 9.51904C64.1639 9.51904 63.8369 9.67741 63.5977 9.99414C63.3607 10.3086 63.2388 10.7461 63.232 11.3066V11.6724C63.232 12.2443 63.3516 12.6943 63.5909 13.0225C63.8324 13.3483 64.1639 13.5112 64.5855 13.5112C65.0093 13.5112 65.3374 13.3574 65.5699 13.0498C65.8023 12.7399 65.9219 12.2967 65.9287 11.7202V11.3511Z" fill="white"/>
<path d="M71.3907 14H70.731L68.2256 10.165V14H67.5659V9.02344H68.2256L70.7378 12.8755V9.02344H71.3907V14Z" fill="white"/>
<path d="M46.6514 26.569H42.4815L41.545 29.1667H40.1914L43.9922 19.2135H45.1407L48.9483 29.1667H47.6016L46.6514 26.569ZM42.878 25.4889H46.2617L44.5664 20.8337L42.878 25.4889Z" fill="white"/>
<path d="M56.3379 25.5505C56.3379 26.6761 56.0804 27.583 55.5655 28.2712C55.0505 28.9593 54.3532 29.3034 53.4737 29.3034C52.5759 29.3034 51.8695 29.0186 51.3545 28.4489V32.0104H50.0899V21.7702H51.2451L51.3067 22.5905C51.8216 21.9525 52.5371 21.6335 53.4532 21.6335C54.3418 21.6335 55.0436 21.9684 55.5586 22.6383C56.0782 23.3083 56.3379 24.2402 56.3379 25.4342V25.5505ZM55.0733 25.4069C55.0733 24.5729 54.8955 23.9144 54.5401 23.4313C54.1846 22.9482 53.697 22.7067 53.0772 22.7067C52.3116 22.7067 51.7373 23.0462 51.3545 23.7253V27.2594C51.7328 27.9339 52.3116 28.2712 53.0909 28.2712C53.697 28.2712 54.1778 28.0319 54.5332 27.5534C54.8933 27.0703 55.0733 26.3548 55.0733 25.4069Z" fill="white"/>
<path d="M64.1992 25.5505C64.1992 26.6761 63.9418 27.583 63.4268 28.2712C62.9118 28.9593 62.2145 29.3034 61.335 29.3034C60.4372 29.3034 59.7308 29.0186 59.2159 28.4489V32.0104H57.9512V21.7702H59.1065L59.168 22.5905C59.683 21.9525 60.3985 21.6335 61.3145 21.6335C62.2032 21.6335 62.905 21.9684 63.42 22.6383C63.9395 23.3083 64.1992 24.2402 64.1992 25.4342V25.5505ZM62.9346 25.4069C62.9346 24.5729 62.7569 23.9144 62.4014 23.4313C62.0459 22.9482 61.5583 22.7067 60.9385 22.7067C60.1729 22.7067 59.5987 23.0462 59.2159 23.7253V27.2594C59.5941 27.9339 60.1729 28.2712 60.9522 28.2712C61.5583 28.2712 62.0391 28.0319 62.3946 27.5534C62.7546 27.0703 62.9346 26.3548 62.9346 25.4069Z" fill="white"/>
<path d="M72.416 24.7301C71.2904 24.4066 70.4701 24.0101 69.9551 23.5407C69.4447 23.0667 69.1895 22.4834 69.1895 21.7907C69.1895 21.0068 69.5017 20.3597 70.126 19.8493C70.7549 19.3343 71.5707 19.0768 72.5733 19.0768C73.2569 19.0768 73.8653 19.209 74.3985 19.4733C74.9362 19.7376 75.3509 20.1022 75.6426 20.5671C75.9388 21.0319 76.0869 21.54 76.0869 22.0915H74.7676C74.7676 21.4899 74.5762 21.0182 74.1934 20.6764C73.8106 20.3301 73.2705 20.1569 72.5733 20.1569C71.9261 20.1569 71.4203 20.3005 71.0557 20.5876C70.6957 20.8701 70.5157 21.2643 70.5157 21.7702C70.5157 22.1758 70.6866 22.5199 71.0283 22.8024C71.3747 23.0804 71.9603 23.3356 72.7852 23.568C73.6146 23.8005 74.2617 24.0579 74.7266 24.3405C75.196 24.6185 75.5423 24.9443 75.7657 25.318C75.9935 25.6917 76.1075 26.1315 76.1075 26.6374C76.1075 27.444 75.793 28.0911 75.1641 28.5788C74.5352 29.0618 73.6944 29.3034 72.6416 29.3034C71.958 29.3034 71.32 29.1735 70.7276 28.9137C70.1351 28.6494 69.6771 28.2894 69.3535 27.8337C69.0345 27.3779 68.875 26.8607 68.875 26.2819H70.1944C70.1944 26.8835 70.4154 27.3597 70.8575 27.7106C71.3041 28.057 71.8988 28.2301 72.6416 28.2301C73.3343 28.2301 73.8653 28.0889 74.2344 27.8063C74.6035 27.5238 74.7881 27.1387 74.7881 26.651C74.7881 26.1634 74.6172 25.7874 74.2754 25.5231C73.9336 25.2542 73.3138 24.9899 72.416 24.7301Z" fill="white"/>
<path d="M79.3135 19.9792V21.7702H80.6944V22.7477H79.3135V27.3346C79.3135 27.6309 79.375 27.8542 79.4981 28.0046C79.6211 28.1504 79.8308 28.2233 80.127 28.2233C80.2728 28.2233 80.4733 28.196 80.7285 28.1413V29.1667C80.3959 29.2578 80.0723 29.3034 79.7578 29.3034C79.1927 29.3034 78.7666 29.1325 78.4795 28.7907C78.1924 28.4489 78.0489 27.9635 78.0489 27.3346V22.7477H76.7022V21.7702H78.0489V19.9792H79.3135Z" fill="white"/>
<path d="M81.7061 25.4001C81.7061 24.6755 81.8474 24.0238 82.1299 23.445C82.417 22.8662 82.8135 22.4196 83.3194 22.1051C83.8298 21.7907 84.4108 21.6335 85.0625 21.6335C86.0697 21.6335 86.8832 21.9821 87.503 22.6794C88.1273 23.3766 88.4395 24.304 88.4395 25.4616V25.5505C88.4395 26.2705 88.3005 26.9176 88.0225 27.4919C87.7491 28.0615 87.3548 28.5059 86.8399 28.8249C86.3295 29.1439 85.7416 29.3034 85.0762 29.3034C84.0736 29.3034 83.2601 28.9548 82.6358 28.2575C82.016 27.5602 81.7061 26.6374 81.7061 25.4889V25.4001ZM82.9776 25.5505C82.9776 26.3708 83.1667 27.0293 83.545 27.526C83.9278 28.0228 84.4382 28.2712 85.0762 28.2712C85.7188 28.2712 86.2292 28.0205 86.6075 27.5192C86.9857 27.0133 87.1748 26.307 87.1748 25.4001C87.1748 24.5889 86.9811 23.9326 86.5938 23.4313C86.211 22.9255 85.7005 22.6725 85.0625 22.6725C84.4382 22.6725 83.9346 22.9209 83.5518 23.4176C83.169 23.9144 82.9776 24.6253 82.9776 25.5505Z" fill="white"/>
<path d="M93.6006 22.9049C93.4092 22.873 93.2019 22.8571 92.9785 22.8571C92.1491 22.8571 91.5863 23.2103 91.2901 23.9167V29.1667H90.0254V21.7702H91.2559L91.2764 22.6247C91.6911 21.9639 92.279 21.6335 93.0401 21.6335C93.2862 21.6335 93.473 21.6654 93.6006 21.7292V22.9049Z" fill="white"/>
<path d="M97.7022 29.3034C96.6996 29.3034 95.8838 28.9753 95.2549 28.319C94.626 27.6582 94.3116 26.7764 94.3116 25.6735V25.4411C94.3116 24.7074 94.4505 24.0534 94.7285 23.4792C95.0111 22.9004 95.403 22.4492 95.9043 22.1257C96.4102 21.7975 96.9571 21.6335 97.545 21.6335C98.5065 21.6335 99.2539 21.9502 99.7871 22.5837C100.32 23.2171 100.587 24.124 100.587 25.3044V25.8307H95.5762C95.5944 26.5599 95.8063 27.1501 96.2119 27.6012C96.6221 28.0479 97.1416 28.2712 97.7705 28.2712C98.2172 28.2712 98.5954 28.18 98.9053 27.9977C99.2152 27.8154 99.4864 27.5739 99.7188 27.2731L100.491 27.8747C99.8714 28.8271 98.9418 29.3034 97.7022 29.3034ZM97.545 22.6725C97.0345 22.6725 96.6061 22.8594 96.2598 23.2331C95.9134 23.6022 95.6992 24.1217 95.6172 24.7917H99.3223V24.696C99.2858 24.0534 99.1127 23.5566 98.8028 23.2057C98.4929 22.8503 98.0736 22.6725 97.545 22.6725Z" fill="white"/>
</svg>
