<svg xmlns="http://www.w3.org/2000/svg" xmlns:xlink="http://www.w3.org/1999/xlink" viewBox="0 0 540.28 164.43"><defs><style>.cls-1,.cls-2,.cls-3{fill:#fff;}.cls-1,.cls-2{stroke:#fff;stroke-miterlimit:10;stroke-width:32px;}.cls-10,.cls-2{opacity:0.35;}.cls-4{fill:#6da3c8;}.cls-5{fill:#fcc112;}.cls-6{fill:url(#linear-gradient);}.cls-7{fill:#8cc0e5;}.cls-8{fill:#3a3a3a;}.cls-9{fill:#c82027;}.cls-11{fill:#f19020;}.cls-12{fill:#fcc10f;}</style><linearGradient id="linear-gradient" x1="62.3" y1="30.57" x2="62.3" y2="119.53" gradientUnits="userSpaceOnUse"><stop offset="0" stop-color="#8dc0e4"/><stop offset="0.23" stop-color="#86b9dd"/><stop offset="0.57" stop-color="#71a5ca"/><stop offset="0.97" stop-color="#5086ab"/><stop offset="0.99" stop-color="#4e84aa"/></linearGradient></defs><title>Asset 1</title><g id="Layer_2" data-name="Layer 2"><g id="Layer_1-2" data-name="Layer 1"><path class="cls-1" d="M136.46,55.67v2.2A31.9,31.9,0,0,1,147,48.56a28,28,0,0,1,13.12-3A26.19,26.19,0,0,1,173,48.73a19.94,19.94,0,0,1,8.48,8.88,21.13,21.13,0,0,1,2.34,7.21,74.73,74.73,0,0,1,.54,9.88v33.92q0,5.47-2.5,8.28a8.32,8.32,0,0,1-6.51,2.81,8.41,8.41,0,0,1-6.61-2.87q-2.54-2.87-2.54-8.21V78.24q0-9-2.5-13.79t-10-4.78a14.78,14.78,0,0,0-8.88,2.9,16.7,16.7,0,0,0-5.88,8q-1.34,4.07-1.34,15.23v22.84q0,5.55-2.57,8.32a8.66,8.66,0,0,1-6.64,2.77,8.26,8.26,0,0,1-6.48-2.87q-2.54-2.87-2.54-8.21V55.94q0-5.21,2.27-7.78a7.86,7.86,0,0,1,6.21-2.57,8.43,8.43,0,0,1,4.34,1.13,8.15,8.15,0,0,1,3.11,3.41A12,12,0,0,1,136.46,55.67Z"/><path class="cls-1" d="M207.82,108.63V29.56q0-5.47,2.44-8.28a8.27,8.27,0,0,1,6.58-2.8,8.63,8.63,0,0,1,6.68,2.77q2.54,2.77,2.54,8.31v79.07q0,5.54-2.57,8.31a8.66,8.66,0,0,1-6.65,2.77,8.23,8.23,0,0,1-6.51-2.87Q207.82,114,207.82,108.63Z"/><path class="cls-1" d="M283.78,109.43v-2.34A40.61,40.61,0,0,1,276.9,114a25.35,25.35,0,0,1-7.88,4.17,32,32,0,0,1-9.75,1.37,25.23,25.23,0,0,1-11.85-2.74,20,20,0,0,1-8.11-7.55q-3.41-5.81-3.41-16.69V56.47q0-5.47,2.47-8.18a8.44,8.44,0,0,1,6.54-2.7,8.68,8.68,0,0,1,6.68,2.74q2.54,2.74,2.54,8.15V85.66a45,45,0,0,0,1.07,10.65,12.79,12.79,0,0,0,3.84,6.75,11,11,0,0,0,7.51,2.44,15.28,15.28,0,0,0,8.68-2.74,16,16,0,0,0,5.94-7.14q1.54-3.87,1.53-17V56.47q0-5.41,2.54-8.15a8.59,8.59,0,0,1,6.61-2.74,8.44,8.44,0,0,1,6.55,2.7q2.47,2.7,2.47,8.18v52.82q0,5.21-2.37,7.81a8.44,8.44,0,0,1-12.29-.1Q283.78,114.31,283.78,109.43Z"/><path class="cls-1" d="M332.71,122l1.67-4.07-22.44-56.5q-2.07-4.87-2.07-7.08a8.27,8.27,0,0,1,1.2-4.34,9,9,0,0,1,3.3-3.21,8.69,8.69,0,0,1,4.37-1.2,7.15,7.15,0,0,1,5.94,2.5,23.1,23.1,0,0,1,3.54,7.18l15.43,44.88,14.62-41.74a72,72,0,0,1,3.14-7.95,9.36,9.36,0,0,1,3-3.87,8.25,8.25,0,0,1,4.44-1,7.82,7.82,0,0,1,4,1.1,7.7,7.7,0,0,1,2.94,3,8,8,0,0,1,1,3.94q-.27,1.27-.87,3.61t-1.47,4.74l-23.77,62.24a72.75,72.75,0,0,1-6,12.89,19.78,19.78,0,0,1-7.78,7.18q-4.84,2.5-13.06,2.5-8,0-12-1.74a6.33,6.33,0,0,1-4-6.34,6.15,6.15,0,0,1,1.9-4.84,8.21,8.21,0,0,1,5.64-1.7,10.45,10.45,0,0,1,2.87.4,13.69,13.69,0,0,0,3,.4,10.85,10.85,0,0,0,4.94-.94,8.65,8.65,0,0,0,3.24-3.24A49.77,49.77,0,0,0,332.71,122Z"/><path class="cls-1" d="M433.28,87.12H397.62a24.17,24.17,0,0,0,2.5,11,16.76,16.76,0,0,0,15.39,9.55,21.89,21.89,0,0,0,6-.77,19.45,19.45,0,0,0,5.24-2.4,40.23,40.23,0,0,0,4.67-3.51q2.14-1.87,5.55-5.08a6,6,0,0,1,4-1.2,6.61,6.61,0,0,1,4.54,1.54,5.5,5.5,0,0,1,1.74,4.34,11.87,11.87,0,0,1-1.93,5.78,23,23,0,0,1-5.84,6.34,33.31,33.31,0,0,1-9.82,5,42.35,42.35,0,0,1-13.59,2q-17.56,0-27.31-10T379,82.52a45.39,45.39,0,0,1,2.4-15,33.09,33.09,0,0,1,7-11.85,30.42,30.42,0,0,1,11.35-7.58,40.73,40.73,0,0,1,15-2.64Q425.4,45.45,433,50A29.66,29.66,0,0,1,444.5,61.62a30.64,30.64,0,0,1,3.81,14.56q0,6.88-3.94,8.91T433.28,87.12ZM397.62,76.78h33.05q-.66-9.35-5-14a15.1,15.1,0,0,0-11.52-4.64,14.59,14.59,0,0,0-11.19,4.71Q398.55,67.56,397.62,76.78Z"/><path class="cls-1" d="M476.4,55.67v2.2a31.91,31.91,0,0,1,10.52-9.32,28,28,0,0,1,13.12-3,26.19,26.19,0,0,1,12.89,3.14,20,20,0,0,1,8.48,8.88,21.16,21.16,0,0,1,2.34,7.21,75.24,75.24,0,0,1,.53,9.88v33.92q0,5.47-2.5,8.28a8.32,8.32,0,0,1-6.51,2.81,8.41,8.41,0,0,1-6.61-2.87q-2.54-2.87-2.54-8.21V78.24q0-9-2.5-13.79t-10-4.78a14.79,14.79,0,0,0-8.88,2.9,16.7,16.7,0,0,0-5.88,8q-1.34,4.07-1.33,15.23v22.84q0,5.54-2.57,8.31a8.66,8.66,0,0,1-6.65,2.77,8.25,8.25,0,0,1-6.48-2.87q-2.54-2.87-2.54-8.21V55.94q0-5.21,2.27-7.78a7.86,7.86,0,0,1,6.21-2.57,8.43,8.43,0,0,1,4.34,1.13,8.12,8.12,0,0,1,3.1,3.41A12,12,0,0,1,476.4,55.67Z"/><path class="cls-1" d="M415.39,148.43a10.4,10.4,0,0,1-7.15-2.67,9.48,9.48,0,0,1-3-7.48,9.68,9.68,0,0,1,2.87-7,9.51,9.51,0,0,1,7.08-2.94,9.9,9.9,0,0,1,7.18,2.9,10.31,10.31,0,0,1,0,14.49A10,10,0,0,1,415.39,148.43Z"/><path class="cls-1" d="M433.71,86.46H398a24.19,24.19,0,0,0,2.5,11A16.77,16.77,0,0,0,415.95,107a21.91,21.91,0,0,0,6-.77,19.41,19.41,0,0,0,5.24-2.41,39.94,39.94,0,0,0,4.68-3.51q2.14-1.87,5.54-5.08a6,6,0,0,1,4-1.2,6.6,6.6,0,0,1,4.54,1.53,5.49,5.49,0,0,1,1.74,4.34,11.87,11.87,0,0,1-1.94,5.78,22.94,22.94,0,0,1-5.84,6.34,33.27,33.27,0,0,1-9.82,5,42.31,42.31,0,0,1-13.59,2q-17.56,0-27.31-10t-9.75-27.18a45.33,45.33,0,0,1,2.41-15,33.08,33.08,0,0,1,7-11.85,30.4,30.4,0,0,1,11.35-7.58,40.73,40.73,0,0,1,15-2.64q10.68,0,18.33,4.51A29.68,29.68,0,0,1,444.93,61a30.67,30.67,0,0,1,3.8,14.56q0,6.88-3.94,8.91T433.71,86.46Zm-15.63-54-6.68-7.81-6.68,7.81a31.05,31.05,0,0,1-3.81,4.07,6.74,6.74,0,0,1-3.74.73h-5.34q-2.74,0-2.74-.93,0-.73,2.07-3.34l7.41-8.88q.94-1.14,2.14-2.64a11.17,11.17,0,0,1,2.11-2.14,7.23,7.23,0,0,1,2.64-1,19.54,19.54,0,0,1,4-.37h3.74q4.41,0,6,1.07a26.26,26.26,0,0,1,4.84,5.07l7.68,9a10.83,10.83,0,0,1,1.94,3c0,.76-1,1.13-3,1.13h-5.08a7.35,7.35,0,0,1-3.17-.57,7.27,7.27,0,0,1-2.24-1.77Q419.15,33.71,418.08,32.44ZM398,76.11H431.1q-.67-9.35-5-14a15.1,15.1,0,0,0-11.52-4.64,14.58,14.58,0,0,0-11.19,4.71Q399,66.9,398,76.11Z"/><ellipse class="cls-1" cx="62.3" cy="75.8" rx="46.3" ry="44.48"/><path class="cls-1" d="M41.1,24.13,59.62,18.4a8.78,8.78,0,0,1,5.73,0l19.5,6.34s-10,5.61-13.65,4.39c0,0-8.89-3.78-17.18.17C54,29.3,45,28.52,41.1,24.13Z"/><ellipse class="cls-1" cx="85.66" cy="62.19" rx="14.46" ry="14.8"/><ellipse class="cls-1" cx="40.27" cy="62.42" rx="14.46" ry="14.8"/><ellipse class="cls-1" cx="40.27" cy="62.19" rx="10.04" ry="10.23"/><ellipse class="cls-1" cx="85.73" cy="61.96" rx="10.04" ry="10.23"/><ellipse class="cls-1" cx="44.3" cy="55.21" rx="3.31" ry="3.25"/><ellipse class="cls-1" cx="89.04" cy="54.98" rx="3.31" ry="3.25"/><path class="cls-2" d="M62.4,58s8,0,6.27,9c0,0-2.42,14.68-5.13,13.79,0,0-2.56,1.19-6-12.9C57.56,67.9,55.28,59.6,62.4,58Z"/><path class="cls-1" d="M62.27,59.17s8.16,0,6.41,6.15c0,0-2.48,10-5.24,9.38,0,0-2.62.81-6.12-8.78C57.31,65.93,55,60.28,62.27,59.17Z"/><path class="cls-1" d="M62.27,57.35s8.16,0,6.41,5.76c0,0-2.48,9.34-5.24,8.78,0,0-2.62.75-6.12-8.21C57.31,63.67,55,58.39,62.27,57.35Z"/><ellipse class="cls-1" cx="63.05" cy="60.57" rx="2.31" ry="0.94"/><ellipse class="cls-3" cx="410.93" cy="34.93" rx="29.5" ry="34.5"/><path class="cls-4" d="M136.46,54.93v2.2A31.9,31.9,0,0,1,147,47.82a28,28,0,0,1,13.12-3A26.19,26.19,0,0,1,173,48a19.94,19.94,0,0,1,8.48,8.88,21.13,21.13,0,0,1,2.34,7.21,74.73,74.73,0,0,1,.54,9.88v33.92q0,5.47-2.5,8.28a8.32,8.32,0,0,1-6.51,2.81,8.41,8.41,0,0,1-6.61-2.87q-2.54-2.87-2.54-8.21V77.5q0-9-2.5-13.79t-10-4.78a14.78,14.78,0,0,0-8.88,2.9,16.7,16.7,0,0,0-5.88,8q-1.34,4.07-1.34,15.23v22.84q0,5.55-2.57,8.32a8.66,8.66,0,0,1-6.64,2.77,8.26,8.26,0,0,1-6.48-2.87q-2.54-2.87-2.54-8.21V55.19q0-5.21,2.27-7.78a7.86,7.86,0,0,1,6.21-2.57A8.43,8.43,0,0,1,132.18,46a8.15,8.15,0,0,1,3.11,3.41A12,12,0,0,1,136.46,54.93Z"/><path class="cls-5" d="M207.82,107.88V28.82q0-5.47,2.44-8.28a8.27,8.27,0,0,1,6.58-2.8,8.63,8.63,0,0,1,6.68,2.77q2.54,2.77,2.54,8.31v79.07q0,5.54-2.57,8.31a8.66,8.66,0,0,1-6.65,2.77,8.23,8.23,0,0,1-6.51-2.87Q207.82,113.23,207.82,107.88Z"/><path class="cls-5" d="M283.78,108.68v-2.34a40.61,40.61,0,0,1-6.88,6.95,25.35,25.35,0,0,1-7.88,4.17,32,32,0,0,1-9.75,1.37,25.23,25.23,0,0,1-11.85-2.74,20,20,0,0,1-8.11-7.55q-3.41-5.81-3.41-16.69V55.73q0-5.47,2.47-8.18a8.44,8.44,0,0,1,6.54-2.7,8.68,8.68,0,0,1,6.68,2.74q2.54,2.74,2.54,8.15V84.91a45,45,0,0,0,1.07,10.65,12.79,12.79,0,0,0,3.84,6.75,11,11,0,0,0,7.51,2.44,15.28,15.28,0,0,0,8.68-2.74,16,16,0,0,0,5.94-7.14q1.54-3.87,1.53-17V55.73q0-5.41,2.54-8.15a8.59,8.59,0,0,1,6.61-2.74,8.44,8.44,0,0,1,6.55,2.7q2.47,2.7,2.47,8.18v52.82q0,5.21-2.37,7.81a8.44,8.44,0,0,1-12.29-.1Q283.78,113.56,283.78,108.68Z"/><path class="cls-5" d="M332.71,121.24l1.67-4.07-22.44-56.5q-2.07-4.87-2.07-7.08a8.27,8.27,0,0,1,1.2-4.34,9,9,0,0,1,3.3-3.21,8.69,8.69,0,0,1,4.37-1.2,7.15,7.15,0,0,1,5.94,2.5,23.1,23.1,0,0,1,3.54,7.18L343.66,99.4l14.62-41.74a72,72,0,0,1,3.14-7.95,9.36,9.36,0,0,1,3-3.87,8.25,8.25,0,0,1,4.44-1,7.82,7.82,0,0,1,4,1.1,7.7,7.7,0,0,1,2.94,3,8,8,0,0,1,1,3.94q-.27,1.27-.87,3.61t-1.47,4.74l-23.77,62.24a72.75,72.75,0,0,1-6,12.89,19.78,19.78,0,0,1-7.78,7.18Q332,146,323.82,146q-8,0-12-1.74a6.33,6.33,0,0,1-4-6.34,6.15,6.15,0,0,1,1.9-4.84,8.21,8.21,0,0,1,5.64-1.7,10.45,10.45,0,0,1,2.87.4,13.69,13.69,0,0,0,3,.4,10.85,10.85,0,0,0,4.94-.94A8.65,8.65,0,0,0,329.4,128,49.77,49.77,0,0,0,332.71,121.24Z"/><path class="cls-5" d="M433.28,86.38H397.62a24.17,24.17,0,0,0,2.5,11,16.76,16.76,0,0,0,15.39,9.55,21.89,21.89,0,0,0,6-.77,19.45,19.45,0,0,0,5.24-2.4,40.23,40.23,0,0,0,4.67-3.51q2.14-1.87,5.55-5.08a6,6,0,0,1,4-1.2,6.61,6.61,0,0,1,4.54,1.54,5.5,5.5,0,0,1,1.74,4.34,11.87,11.87,0,0,1-1.93,5.78,23,23,0,0,1-5.84,6.34,33.31,33.31,0,0,1-9.82,5A42.35,42.35,0,0,1,416,119q-17.56,0-27.31-10T379,81.77a45.39,45.39,0,0,1,2.4-15,33.09,33.09,0,0,1,7-11.85,30.42,30.42,0,0,1,11.35-7.58,40.73,40.73,0,0,1,15-2.64q10.68,0,18.33,4.51A29.66,29.66,0,0,1,444.5,60.87a30.64,30.64,0,0,1,3.81,14.56q0,6.88-3.94,8.91T433.28,86.38ZM397.62,76h33.05q-.66-9.35-5-14a15.1,15.1,0,0,0-11.52-4.64,14.59,14.59,0,0,0-11.19,4.71Q398.55,66.82,397.62,76Z"/><path class="cls-5" d="M476.4,54.93v2.2a31.91,31.91,0,0,1,10.52-9.32,28,28,0,0,1,13.12-3A26.19,26.19,0,0,1,512.93,48a20,20,0,0,1,8.48,8.88,21.16,21.16,0,0,1,2.34,7.21,75.24,75.24,0,0,1,.53,9.88v33.92q0,5.47-2.5,8.28a8.32,8.32,0,0,1-6.51,2.81,8.41,8.41,0,0,1-6.61-2.87q-2.54-2.87-2.54-8.21V77.5q0-9-2.5-13.79t-10-4.78a14.79,14.79,0,0,0-8.88,2.9,16.7,16.7,0,0,0-5.88,8q-1.34,4.07-1.33,15.23v22.84q0,5.54-2.57,8.31a8.66,8.66,0,0,1-6.65,2.77,8.25,8.25,0,0,1-6.48-2.87q-2.54-2.87-2.54-8.21V55.19q0-5.21,2.27-7.78a7.86,7.86,0,0,1,6.21-2.57A8.43,8.43,0,0,1,472.12,46a8.12,8.12,0,0,1,3.1,3.41A12,12,0,0,1,476.4,54.93Z"/><path class="cls-5" d="M415.39,147.68a10.4,10.4,0,0,1-7.15-2.67,9.48,9.48,0,0,1-3-7.48,9.68,9.68,0,0,1,2.87-7,9.51,9.51,0,0,1,7.08-2.94,9.9,9.9,0,0,1,7.18,2.9,10.31,10.31,0,0,1,0,14.49A10,10,0,0,1,415.39,147.68Z"/><path class="cls-5" d="M433.71,85.72H398a24.19,24.19,0,0,0,2.5,11,16.77,16.77,0,0,0,15.39,9.55,21.91,21.91,0,0,0,6-.77,19.41,19.41,0,0,0,5.24-2.41,39.94,39.94,0,0,0,4.68-3.51q2.14-1.87,5.54-5.08a6,6,0,0,1,4-1.2,6.6,6.6,0,0,1,4.54,1.53,5.49,5.49,0,0,1,1.74,4.34,11.87,11.87,0,0,1-1.94,5.78,22.94,22.94,0,0,1-5.84,6.34,33.27,33.27,0,0,1-9.82,5,42.31,42.31,0,0,1-13.59,2q-17.56,0-27.31-10t-9.75-27.18a45.33,45.33,0,0,1,2.41-15,33.08,33.08,0,0,1,7-11.85,30.4,30.4,0,0,1,11.35-7.58,40.73,40.73,0,0,1,15-2.64q10.68,0,18.33,4.51a29.68,29.68,0,0,1,11.45,11.65,30.67,30.67,0,0,1,3.8,14.56q0,6.88-3.94,8.91T433.71,85.72Zm-15.63-54-6.68-7.81-6.68,7.81a31.05,31.05,0,0,1-3.81,4.07,6.74,6.74,0,0,1-3.74.73h-5.34q-2.74,0-2.74-.93,0-.73,2.07-3.34l7.41-8.88q.94-1.14,2.14-2.64a11.17,11.17,0,0,1,2.11-2.14,7.23,7.23,0,0,1,2.64-1,19.54,19.54,0,0,1,4-.37h3.74q4.41,0,6,1.07a26.26,26.26,0,0,1,4.84,5.07l7.68,9a10.83,10.83,0,0,1,1.94,3c0,.76-1,1.13-3,1.13h-5.08a7.35,7.35,0,0,1-3.17-.57,7.27,7.27,0,0,1-2.24-1.77Q419.15,33,418.08,31.7ZM398,75.37H431.1q-.67-9.35-5-14a15.1,15.1,0,0,0-11.52-4.64,14.58,14.58,0,0,0-11.19,4.71Q399,66.15,398,75.37Z"/><ellipse class="cls-6" cx="62.3" cy="75.05" rx="46.3" ry="44.48"/><path class="cls-3" d="M20.82,96.65S32,92,33.87,81.95c0,0-.38,12.36-9.89,19.2L19,102.86Z"/><path class="cls-3" d="M104.27,96.65s-11.15-4.62-13-14.7c0,0,.38,12.36,9.89,19.2l4.94,1.71Z"/><path class="cls-7" d="M84.06,36.15a9.62,9.62,0,0,0,8.39-6.84s3.72,9.42-.57,13.47C91.88,42.78,84.66,39.79,84.06,36.15Z"/><path class="cls-7" d="M43.12,36s-7.91.33-8.48-6.73c0,0-5.46,7.75-.95,13.47C33.7,42.69,40.58,44.62,43.12,36Z"/><path class="cls-8" d="M41.1,23.39l18.52-5.73a8.78,8.78,0,0,1,5.73,0L84.84,24s-10,5.61-13.65,4.39c0,0-8.89-3.78-17.18.17C54,28.55,45,27.78,41.1,23.39Z"/><polygon class="cls-9" points="83.67 24.32 83.67 26.78 82.9 27.12 82.9 31.36 84.73 31.36 84.73 27.15 83.96 26.78 83.98 24.19 83.67 24.32"/><ellipse class="cls-3" cx="85.66" cy="61.44" rx="14.46" ry="14.8"/><ellipse class="cls-3" cx="40.27" cy="61.67" rx="14.46" ry="14.8"/><ellipse class="cls-8" cx="40.27" cy="61.44" rx="10.04" ry="10.23"/><ellipse class="cls-8" cx="85.73" cy="61.21" rx="10.04" ry="10.23"/><ellipse class="cls-3" cx="44.3" cy="54.47" rx="3.31" ry="3.25"/><ellipse class="cls-3" cx="89.04" cy="54.24" rx="3.31" ry="3.25"/><path class="cls-10" d="M62.4,57.22s8,0,6.27,9c0,0-2.42,14.68-5.13,13.79,0,0-2.56,1.19-6-12.9C57.56,67.16,55.28,58.85,62.4,57.22Z"/><path class="cls-11" d="M62.27,58.43s8.16,0,6.41,6.15c0,0-2.48,10-5.24,9.38,0,0-2.62.81-6.12-8.78C57.31,65.18,55,59.54,62.27,58.43Z"/><path class="cls-12" d="M62.27,56.6s8.16,0,6.41,5.76c0,0-2.48,9.34-5.24,8.78,0,0-2.62.75-6.12-8.21C57.31,62.92,55,57.64,62.27,56.6Z"/><ellipse class="cls-3" cx="63.05" cy="59.83" rx="2.31" ry="0.94"/></g></g></svg>